<svg width="96" height="95" viewBox="0 0 96 95" fill="none" xmlns="http://www.w3.org/2000/svg">
<path d="M8 40C8 21.1438 8 11.7157 13.8579 5.85786C19.7157 0 29.1438 0 48 0C66.8562 0 76.2843 0 82.1421 5.85786C88 11.7157 88 21.1438 88 40C88 58.8562 88 68.2843 82.1421 74.1421C76.2843 80 66.8562 80 48 80C29.1438 80 19.7157 80 13.8579 74.1421C8 68.2843 8 58.8562 8 40Z" fill="url(#paint0_linear)"/>
<g filter="url(#filter0_ddiii)">
<path d="M71.1874 28.5817C70.682 28.2779 70.0508 28.2502 69.5194 28.5084L58.2856 33.97V30C58.2856 27.2386 55.9831 25 53.1428 25H29.1429C26.3025 25 24 27.2386 24 30V50C24 52.7614 26.3025 55 29.1429 55H53.1428C55.9831 55 58.2856 52.7614 58.2856 50V46.03L69.5194 51.5C70.3663 51.9114 71.3959 51.5775 71.8192 50.7541C71.9395 50.52 72.0015 50.2616 72 50V30C72.0003 29.4223 71.6928 28.8856 71.1874 28.5817Z" fill="url(#paint1_radial)"/>
</g>
<g filter="url(#filter1_di)">
<path d="M41.4286 46.2857C37.7993 46.2857 34.8571 43.3436 34.8571 39.7143C34.8571 36.0849 37.7993 33.1428 41.4286 33.1428C45.0579 33.1428 48 36.0849 48 39.7143C48 43.3436 45.0578 46.2857 41.4286 46.2857Z" fill="url(#paint2_linear)"/>
</g>
<defs>
<filter id="filter0_ddiii" x="0" y="17" width="96" height="78" filterUnits="userSpaceOnUse" color-interpolation-filters="sRGB">
<feFlood flood-opacity="0" result="BackgroundImageFix"/>
<feColorMatrix in="SourceAlpha" type="matrix" values="0 0 0 0 0 0 0 0 0 0 0 0 0 0 0 0 0 0 127 0"/>
<feOffset dy="8"/>
<feGaussianBlur stdDeviation="4"/>
<feColorMatrix type="matrix" values="0 0 0 0 0 0 0 0 0 0 0 0 0 0 0 0 0 0 0.16 0"/>
<feBlend mode="normal" in2="BackgroundImageFix" result="effect1_dropShadow"/>
<feColorMatrix in="SourceAlpha" type="matrix" values="0 0 0 0 0 0 0 0 0 0 0 0 0 0 0 0 0 0 127 0"/>
<feOffset dy="16"/>
<feGaussianBlur stdDeviation="12"/>
<feColorMatrix type="matrix" values="0 0 0 0 0 0 0 0 0 0 0 0 0 0 0 0 0 0 0.2 0"/>
<feBlend mode="normal" in2="effect1_dropShadow" result="effect2_dropShadow"/>
<feBlend mode="normal" in="SourceGraphic" in2="effect2_dropShadow" result="shape"/>
<feColorMatrix in="SourceAlpha" type="matrix" values="0 0 0 0 0 0 0 0 0 0 0 0 0 0 0 0 0 0 127 0" result="hardAlpha"/>
<feOffset dy="-4"/>
<feGaussianBlur stdDeviation="4"/>
<feComposite in2="hardAlpha" operator="arithmetic" k2="-1" k3="1"/>
<feColorMatrix type="matrix" values="0 0 0 0 0.841667 0 0 0 0 0.0350695 0 0 0 0 0.0350695 0 0 0 0.3 0"/>
<feBlend mode="normal" in2="shape" result="effect3_innerShadow"/>
<feColorMatrix in="SourceAlpha" type="matrix" values="0 0 0 0 0 0 0 0 0 0 0 0 0 0 0 0 0 0 127 0" result="hardAlpha"/>
<feOffset dx="18" dy="28"/>
<feGaussianBlur stdDeviation="45"/>
<feComposite in2="hardAlpha" operator="arithmetic" k2="-1" k3="1"/>
<feColorMatrix type="matrix" values="0 0 0 0 1 0 0 0 0 1 0 0 0 0 1 0 0 0 0.2 0"/>
<feBlend mode="normal" in2="effect3_innerShadow" result="effect4_innerShadow"/>
<feColorMatrix in="SourceAlpha" type="matrix" values="0 0 0 0 0 0 0 0 0 0 0 0 0 0 0 0 0 0 127 0" result="hardAlpha"/>
<feOffset dx="3" dy="7"/>
<feGaussianBlur stdDeviation="10"/>
<feComposite in2="hardAlpha" operator="arithmetic" k2="-1" k3="1"/>
<feColorMatrix type="matrix" values="0 0 0 0 1 0 0 0 0 1 0 0 0 0 1 0 0 0 0.2 0"/>
<feBlend mode="normal" in2="effect4_innerShadow" result="effect5_innerShadow"/>
</filter>
<filter id="filter1_di" x="30.8571" y="31.1428" width="21.1429" height="21.1429" filterUnits="userSpaceOnUse" color-interpolation-filters="sRGB">
<feFlood flood-opacity="0" result="BackgroundImageFix"/>
<feColorMatrix in="SourceAlpha" type="matrix" values="0 0 0 0 0 0 0 0 0 0 0 0 0 0 0 0 0 0 127 0"/>
<feOffset dy="2"/>
<feGaussianBlur stdDeviation="2"/>
<feColorMatrix type="matrix" values="0 0 0 0 1 0 0 0 0 1 0 0 0 0 1 0 0 0 0.8 0"/>
<feBlend mode="normal" in2="BackgroundImageFix" result="effect1_dropShadow"/>
<feBlend mode="normal" in="SourceGraphic" in2="effect1_dropShadow" result="shape"/>
<feColorMatrix in="SourceAlpha" type="matrix" values="0 0 0 0 0 0 0 0 0 0 0 0 0 0 0 0 0 0 127 0" result="hardAlpha"/>
<feOffset dy="2"/>
<feGaussianBlur stdDeviation="2"/>
<feComposite in2="hardAlpha" operator="arithmetic" k2="-1" k3="1"/>
<feColorMatrix type="matrix" values="0 0 0 0 0.0875 0 0 0 0 0.0875 0 0 0 0 0.0875 0 0 0 0.5 0"/>
<feBlend mode="normal" in2="shape" result="effect2_innerShadow"/>
</filter>
<linearGradient id="paint0_linear" x1="48" y1="0" x2="48" y2="80" gradientUnits="userSpaceOnUse">
<stop stop-color="#FF4B4B"/>
<stop offset="1" stop-color="#E21919"/>
</linearGradient>
<radialGradient id="paint1_radial" cx="0" cy="0" r="1" gradientUnits="userSpaceOnUse" gradientTransform="translate(26.0625 26.875) rotate(36.9479) scale(46.6362 41.2018)">
<stop stop-color="white"/>
<stop offset="0.0001" stop-color="#FFA5A5"/>
<stop offset="0.120794" stop-color="white"/>
<stop offset="0.497048" stop-color="#FFE3E3"/>
<stop offset="0.87665" stop-color="#FF7676"/>
<stop offset="1" stop-color="#FF0000"/>
</radialGradient>
<linearGradient id="paint2_linear" x1="41.4286" y1="33.1428" x2="41.4286" y2="46.2857" gradientUnits="userSpaceOnUse">
<stop stop-color="#878787"/>
<stop offset="1" stop-color="#090909"/>
</linearGradient>
</defs>
</svg>
