<svg width="84" height="104" viewBox="0 0 84 104" fill="none" xmlns="http://www.w3.org/2000/svg">
<rect x="2" width="80" height="80" rx="20" fill="url(#paint0_linear)"/>
<g filter="url(#filter0_ddiii)">
<path d="M43.2191 16H26.4315C25.204 16 24.209 16.9951 24.209 18.2226V27.8627C24.209 29.0901 25.204 30.0853 26.4316 30.0853H26.5403C27.0048 30.0853 27.3813 30.4619 27.3813 30.9263V33.7401C27.3813 34.1812 27.8941 34.4238 28.2352 34.1441L32.9501 30.2761C33.1005 30.1527 33.289 30.0853 33.4836 30.0853H43.2192C44.4467 30.0853 45.4419 29.0902 45.4419 27.8627V18.2226C45.4418 16.9951 44.4466 16 43.2191 16V16Z" fill="url(#paint1_radial)"/>
</g>
<g filter="url(#filter1_di)">
<path d="M41.8086 23.7503H27.8421C27.4334 23.7503 27.1021 23.419 27.1021 23.0103C27.1021 22.6015 27.4334 22.2702 27.8421 22.2702H41.8085C42.2173 22.2702 42.5486 22.6015 42.5486 23.0103C42.5486 23.419 42.2174 23.7503 41.8086 23.7503Z" fill="url(#paint2_linear)"/>
<path d="M34.5298 26.9971H27.8672C27.4585 26.9971 27.1272 26.6658 27.1272 26.257C27.1272 25.8484 27.4585 25.517 27.8672 25.517H34.5299C34.9386 25.517 35.2699 25.8483 35.2699 26.257C35.2698 26.6657 34.9385 26.9971 34.5298 26.9971Z" fill="url(#paint3_linear)"/>
<path d="M41.8086 20.4179H27.8421C27.4334 20.4179 27.1021 20.0866 27.1021 19.6778C27.1021 19.2691 27.4334 18.9377 27.8421 18.9377H41.8085C42.2173 18.9377 42.5486 19.2691 42.5486 19.6778C42.5486 20.0866 42.2174 20.4179 41.8086 20.4179Z" fill="url(#paint4_linear)"/>
</g>
<g filter="url(#filter2_ddiii)">
<path d="M41.227 19.678H57.6206C58.8193 19.678 59.791 20.6497 59.791 21.8484V31.6351C59.791 32.8338 58.8193 33.8055 57.6206 33.8055H57.5145C57.0609 33.8055 56.6932 34.1732 56.6932 34.6269V37.3747C56.6932 37.8054 56.1924 38.0423 55.8594 37.7691L51.255 33.9919C51.1081 33.8714 50.9241 33.8055 50.734 33.8055H41.227C40.0284 33.8055 39.0566 32.8338 39.0566 31.6351V21.8484C39.0566 20.6497 40.0284 19.678 41.227 19.678V19.678Z" fill="url(#paint5_radial)"/>
</g>
<g filter="url(#filter3_di)">
<path d="M56.3479 24.068H42.3815C41.9727 24.068 41.6414 23.7367 41.6414 23.328C41.6414 22.9192 41.9727 22.5879 42.3815 22.5879H56.3479C56.7566 22.5879 57.0879 22.9192 57.0879 23.328C57.0879 23.7367 56.7566 24.068 56.3479 24.068Z" fill="url(#paint6_linear)"/>
<path d="M56.3479 27.4004H42.3815C41.9727 27.4004 41.6414 27.0691 41.6414 26.6603C41.6414 26.2516 41.9727 25.9203 42.3815 25.9203H56.3479C56.7566 25.9203 57.0879 26.2516 57.0879 26.6603C57.0879 27.0691 56.7566 27.4004 56.3479 27.4004Z" fill="url(#paint7_linear)"/>
<path d="M52.1339 30.6471H42.4064C41.9977 30.6471 41.6664 30.3158 41.6664 29.9071C41.6664 29.4983 41.9977 29.167 42.4064 29.167H52.1339C52.5427 29.167 52.874 29.4983 52.874 29.9071C52.874 30.3158 52.5427 30.6471 52.1339 30.6471Z" fill="url(#paint8_linear)"/>
</g>
<g filter="url(#filter4_ddiii)">
<path d="M46.527 34.0559L45.5994 48.4134L45.2991 53.0485L44.7915 60.905C44.6785 62.6458 43.234 64 41.4905 64C39.7497 64 38.3078 62.6525 38.1896 60.9169L37.6554 53.0897L37.3391 48.4492L36.3571 34.0559H46.527Z" fill="url(#paint9_radial)"/>
</g>
<g filter="url(#filter5_ddi)">
<path d="M45.5994 48.4133L45.2991 53.0485C44.1736 53.729 42.8539 54.1196 41.4426 54.1196C40.0606 54.1196 38.7662 53.7449 37.6553 53.0897L37.339 48.4491C38.5164 49.2239 39.9264 49.6744 41.4426 49.6744C42.9815 49.6745 44.4114 49.2094 45.5994 48.4133V48.4133Z" fill="#ECEAEC"/>
</g>
<g filter="url(#filter6_f)">
<path d="M44.1417 34.0559L43.2142 48.4134L42.9139 53.0485L42.4062 60.905C42.3205 62.2269 41.4666 63.325 40.2974 63.7775C40.6683 63.9209 41.0706 64 41.4906 64C43.2341 64 44.6786 62.6458 44.7916 60.905L45.2993 53.0485L45.5995 48.4134L46.5271 34.0559H44.1417Z" fill="#633C3E"/>
</g>
<g filter="url(#filter7_dddiii)">
<path d="M41.5 40C45.6421 40 49 36.6421 49 32.5C49 28.3579 45.6421 25 41.5 25C37.3579 25 34 28.3579 34 32.5C34 36.6421 37.3579 40 41.5 40Z" fill="url(#paint10_radial)"/>
</g>
<g filter="url(#filter8_f)">
<path d="M43.383 26C42.9057 26 42.4424 26.0641 42 26.1838C44.4333 26.842 46.234 29.1962 46.234 32C46.234 34.8038 44.4333 37.1581 42 37.8162C42.4425 37.9359 42.9057 38 43.383 38C46.4852 38 49 35.3137 49 31.9999C49 28.6862 46.4852 26 43.383 26V26Z" fill="#FFC269"/>
</g>
<defs>
<filter id="filter0_ddiii" x="0.208984" y="8" width="69.2329" height="66.2636" filterUnits="userSpaceOnUse" color-interpolation-filters="sRGB">
<feFlood flood-opacity="0" result="BackgroundImageFix"/>
<feColorMatrix in="SourceAlpha" type="matrix" values="0 0 0 0 0 0 0 0 0 0 0 0 0 0 0 0 0 0 127 0"/>
<feOffset dy="8"/>
<feGaussianBlur stdDeviation="4"/>
<feColorMatrix type="matrix" values="0 0 0 0 0 0 0 0 0 0 0 0 0 0 0 0 0 0 0.16 0"/>
<feBlend mode="normal" in2="BackgroundImageFix" result="effect1_dropShadow"/>
<feColorMatrix in="SourceAlpha" type="matrix" values="0 0 0 0 0 0 0 0 0 0 0 0 0 0 0 0 0 0 127 0"/>
<feOffset dy="16"/>
<feGaussianBlur stdDeviation="12"/>
<feColorMatrix type="matrix" values="0 0 0 0 0 0 0 0 0 0 0 0 0 0 0 0 0 0 0.2 0"/>
<feBlend mode="normal" in2="effect1_dropShadow" result="effect2_dropShadow"/>
<feBlend mode="normal" in="SourceGraphic" in2="effect2_dropShadow" result="shape"/>
<feColorMatrix in="SourceAlpha" type="matrix" values="0 0 0 0 0 0 0 0 0 0 0 0 0 0 0 0 0 0 127 0" result="hardAlpha"/>
<feOffset dy="-4"/>
<feGaussianBlur stdDeviation="4"/>
<feComposite in2="hardAlpha" operator="arithmetic" k2="-1" k3="1"/>
<feColorMatrix type="matrix" values="0 0 0 0 0.643137 0 0 0 0 0.8 0 0 0 0 1 0 0 0 1 0"/>
<feBlend mode="normal" in2="shape" result="effect3_innerShadow"/>
<feColorMatrix in="SourceAlpha" type="matrix" values="0 0 0 0 0 0 0 0 0 0 0 0 0 0 0 0 0 0 127 0" result="hardAlpha"/>
<feOffset dx="18" dy="28"/>
<feGaussianBlur stdDeviation="45"/>
<feComposite in2="hardAlpha" operator="arithmetic" k2="-1" k3="1"/>
<feColorMatrix type="matrix" values="0 0 0 0 1 0 0 0 0 1 0 0 0 0 1 0 0 0 0.2 0"/>
<feBlend mode="normal" in2="effect3_innerShadow" result="effect4_innerShadow"/>
<feColorMatrix in="SourceAlpha" type="matrix" values="0 0 0 0 0 0 0 0 0 0 0 0 0 0 0 0 0 0 127 0" result="hardAlpha"/>
<feOffset dx="3" dy="7"/>
<feGaussianBlur stdDeviation="10"/>
<feComposite in2="hardAlpha" operator="arithmetic" k2="-1" k3="1"/>
<feColorMatrix type="matrix" values="0 0 0 0 1 0 0 0 0 1 0 0 0 0 1 0 0 0 0.2 0"/>
<feBlend mode="normal" in2="effect4_innerShadow" result="effect5_innerShadow"/>
</filter>
<filter id="filter1_di" x="23.1021" y="16.9377" width="23.4465" height="16.0593" filterUnits="userSpaceOnUse" color-interpolation-filters="sRGB">
<feFlood flood-opacity="0" result="BackgroundImageFix"/>
<feColorMatrix in="SourceAlpha" type="matrix" values="0 0 0 0 0 0 0 0 0 0 0 0 0 0 0 0 0 0 127 0"/>
<feOffset dy="2"/>
<feGaussianBlur stdDeviation="2"/>
<feColorMatrix type="matrix" values="0 0 0 0 1 0 0 0 0 1 0 0 0 0 1 0 0 0 0.8 0"/>
<feBlend mode="normal" in2="BackgroundImageFix" result="effect1_dropShadow"/>
<feBlend mode="normal" in="SourceGraphic" in2="effect1_dropShadow" result="shape"/>
<feColorMatrix in="SourceAlpha" type="matrix" values="0 0 0 0 0 0 0 0 0 0 0 0 0 0 0 0 0 0 127 0" result="hardAlpha"/>
<feOffset dy="2"/>
<feGaussianBlur stdDeviation="2"/>
<feComposite in2="hardAlpha" operator="arithmetic" k2="-1" k3="1"/>
<feColorMatrix type="matrix" values="0 0 0 0 0.0758599 0 0 0 0 0.478412 0 0 0 0 0.991667 0 0 0 1 0"/>
<feBlend mode="normal" in2="shape" result="effect2_innerShadow"/>
</filter>
<filter id="filter2_ddiii" x="15.0566" y="11.678" width="68.7344" height="66.2078" filterUnits="userSpaceOnUse" color-interpolation-filters="sRGB">
<feFlood flood-opacity="0" result="BackgroundImageFix"/>
<feColorMatrix in="SourceAlpha" type="matrix" values="0 0 0 0 0 0 0 0 0 0 0 0 0 0 0 0 0 0 127 0"/>
<feOffset dy="8"/>
<feGaussianBlur stdDeviation="4"/>
<feColorMatrix type="matrix" values="0 0 0 0 0 0 0 0 0 0 0 0 0 0 0 0 0 0 0.16 0"/>
<feBlend mode="normal" in2="BackgroundImageFix" result="effect1_dropShadow"/>
<feColorMatrix in="SourceAlpha" type="matrix" values="0 0 0 0 0 0 0 0 0 0 0 0 0 0 0 0 0 0 127 0"/>
<feOffset dy="16"/>
<feGaussianBlur stdDeviation="12"/>
<feColorMatrix type="matrix" values="0 0 0 0 0 0 0 0 0 0 0 0 0 0 0 0 0 0 0.2 0"/>
<feBlend mode="normal" in2="effect1_dropShadow" result="effect2_dropShadow"/>
<feBlend mode="normal" in="SourceGraphic" in2="effect2_dropShadow" result="shape"/>
<feColorMatrix in="SourceAlpha" type="matrix" values="0 0 0 0 0 0 0 0 0 0 0 0 0 0 0 0 0 0 127 0" result="hardAlpha"/>
<feOffset dy="-4"/>
<feGaussianBlur stdDeviation="4"/>
<feComposite in2="hardAlpha" operator="arithmetic" k2="-1" k3="1"/>
<feColorMatrix type="matrix" values="0 0 0 0 0.823529 0 0 0 0 0.823529 0 0 0 0 1 0 0 0 1 0"/>
<feBlend mode="normal" in2="shape" result="effect3_innerShadow"/>
<feColorMatrix in="SourceAlpha" type="matrix" values="0 0 0 0 0 0 0 0 0 0 0 0 0 0 0 0 0 0 127 0" result="hardAlpha"/>
<feOffset dx="18" dy="28"/>
<feGaussianBlur stdDeviation="45"/>
<feComposite in2="hardAlpha" operator="arithmetic" k2="-1" k3="1"/>
<feColorMatrix type="matrix" values="0 0 0 0 1 0 0 0 0 1 0 0 0 0 1 0 0 0 0.2 0"/>
<feBlend mode="normal" in2="effect3_innerShadow" result="effect4_innerShadow"/>
<feColorMatrix in="SourceAlpha" type="matrix" values="0 0 0 0 0 0 0 0 0 0 0 0 0 0 0 0 0 0 127 0" result="hardAlpha"/>
<feOffset dx="3" dy="7"/>
<feGaussianBlur stdDeviation="10"/>
<feComposite in2="hardAlpha" operator="arithmetic" k2="-1" k3="1"/>
<feColorMatrix type="matrix" values="0 0 0 0 1 0 0 0 0 1 0 0 0 0 1 0 0 0 0.2 0"/>
<feBlend mode="normal" in2="effect4_innerShadow" result="effect5_innerShadow"/>
</filter>
<filter id="filter3_di" x="37.6414" y="20.5879" width="23.4465" height="16.0592" filterUnits="userSpaceOnUse" color-interpolation-filters="sRGB">
<feFlood flood-opacity="0" result="BackgroundImageFix"/>
<feColorMatrix in="SourceAlpha" type="matrix" values="0 0 0 0 0 0 0 0 0 0 0 0 0 0 0 0 0 0 127 0"/>
<feOffset dy="2"/>
<feGaussianBlur stdDeviation="2"/>
<feColorMatrix type="matrix" values="0 0 0 0 1 0 0 0 0 1 0 0 0 0 1 0 0 0 0.8 0"/>
<feBlend mode="normal" in2="BackgroundImageFix" result="effect1_dropShadow"/>
<feBlend mode="normal" in="SourceGraphic" in2="effect1_dropShadow" result="shape"/>
<feColorMatrix in="SourceAlpha" type="matrix" values="0 0 0 0 0 0 0 0 0 0 0 0 0 0 0 0 0 0 127 0" result="hardAlpha"/>
<feOffset dy="2"/>
<feGaussianBlur stdDeviation="2"/>
<feComposite in2="hardAlpha" operator="arithmetic" k2="-1" k3="1"/>
<feColorMatrix type="matrix" values="0 0 0 0 0.53157 0 0 0 0 0.526319 0 0 0 0 0.883333 0 0 0 1 0"/>
<feBlend mode="normal" in2="shape" result="effect2_innerShadow"/>
</filter>
<filter id="filter4_ddiii" x="12.3571" y="26.0559" width="58.1699" height="77.944" filterUnits="userSpaceOnUse" color-interpolation-filters="sRGB">
<feFlood flood-opacity="0" result="BackgroundImageFix"/>
<feColorMatrix in="SourceAlpha" type="matrix" values="0 0 0 0 0 0 0 0 0 0 0 0 0 0 0 0 0 0 127 0"/>
<feOffset dy="8"/>
<feGaussianBlur stdDeviation="4"/>
<feColorMatrix type="matrix" values="0 0 0 0 0 0 0 0 0 0 0 0 0 0 0 0 0 0 0.16 0"/>
<feBlend mode="normal" in2="BackgroundImageFix" result="effect1_dropShadow"/>
<feColorMatrix in="SourceAlpha" type="matrix" values="0 0 0 0 0 0 0 0 0 0 0 0 0 0 0 0 0 0 127 0"/>
<feOffset dy="16"/>
<feGaussianBlur stdDeviation="12"/>
<feColorMatrix type="matrix" values="0 0 0 0 0 0 0 0 0 0 0 0 0 0 0 0 0 0 0.2 0"/>
<feBlend mode="normal" in2="effect1_dropShadow" result="effect2_dropShadow"/>
<feBlend mode="normal" in="SourceGraphic" in2="effect2_dropShadow" result="shape"/>
<feColorMatrix in="SourceAlpha" type="matrix" values="0 0 0 0 0 0 0 0 0 0 0 0 0 0 0 0 0 0 127 0" result="hardAlpha"/>
<feOffset dy="-4"/>
<feGaussianBlur stdDeviation="4"/>
<feComposite in2="hardAlpha" operator="arithmetic" k2="-1" k3="1"/>
<feColorMatrix type="matrix" values="0 0 0 0 0.841667 0 0 0 0 0.0350695 0 0 0 0 0.0350695 0 0 0 0.3 0"/>
<feBlend mode="normal" in2="shape" result="effect3_innerShadow"/>
<feColorMatrix in="SourceAlpha" type="matrix" values="0 0 0 0 0 0 0 0 0 0 0 0 0 0 0 0 0 0 127 0" result="hardAlpha"/>
<feOffset dx="18" dy="28"/>
<feGaussianBlur stdDeviation="45"/>
<feComposite in2="hardAlpha" operator="arithmetic" k2="-1" k3="1"/>
<feColorMatrix type="matrix" values="0 0 0 0 1 0 0 0 0 1 0 0 0 0 1 0 0 0 0.2 0"/>
<feBlend mode="normal" in2="effect3_innerShadow" result="effect4_innerShadow"/>
<feColorMatrix in="SourceAlpha" type="matrix" values="0 0 0 0 0 0 0 0 0 0 0 0 0 0 0 0 0 0 127 0" result="hardAlpha"/>
<feOffset dx="3" dy="7"/>
<feGaussianBlur stdDeviation="10"/>
<feComposite in2="hardAlpha" operator="arithmetic" k2="-1" k3="1"/>
<feColorMatrix type="matrix" values="0 0 0 0 1 0 0 0 0 1 0 0 0 0 1 0 0 0 0.2 0"/>
<feBlend mode="normal" in2="effect4_innerShadow" result="effect5_innerShadow"/>
</filter>
<filter id="filter5_ddi" x="28.339" y="39.4133" width="26.2604" height="23.7063" filterUnits="userSpaceOnUse" color-interpolation-filters="sRGB">
<feFlood flood-opacity="0" result="BackgroundImageFix"/>
<feColorMatrix in="SourceAlpha" type="matrix" values="0 0 0 0 0 0 0 0 0 0 0 0 0 0 0 0 0 0 127 0"/>
<feOffset dx="1" dy="1"/>
<feGaussianBlur stdDeviation="4"/>
<feColorMatrix type="matrix" values="0 0 0 0 0.383333 0 0 0 0 0.244375 0 0 0 0 0.247938 0 0 0 1 0"/>
<feBlend mode="normal" in2="BackgroundImageFix" result="effect1_dropShadow"/>
<feColorMatrix in="SourceAlpha" type="matrix" values="0 0 0 0 0 0 0 0 0 0 0 0 0 0 0 0 0 0 127 0"/>
<feOffset dx="-1" dy="-1"/>
<feGaussianBlur stdDeviation="4"/>
<feColorMatrix type="matrix" values="0 0 0 0 0.776471 0 0 0 0 0.721569 0 0 0 0 0.721569 0 0 0 1 0"/>
<feBlend mode="normal" in2="effect1_dropShadow" result="effect2_dropShadow"/>
<feBlend mode="normal" in="SourceGraphic" in2="effect2_dropShadow" result="shape"/>
<feColorMatrix in="SourceAlpha" type="matrix" values="0 0 0 0 0 0 0 0 0 0 0 0 0 0 0 0 0 0 127 0" result="hardAlpha"/>
<feOffset dy="1"/>
<feGaussianBlur stdDeviation="1.5"/>
<feComposite in2="hardAlpha" operator="arithmetic" k2="-1" k3="1"/>
<feColorMatrix type="matrix" values="0 0 0 0 1 0 0 0 0 1 0 0 0 0 1 0 0 0 1 0"/>
<feBlend mode="normal" in2="shape" result="effect3_innerShadow"/>
</filter>
<filter id="filter6_f" x="38.2974" y="32.0559" width="10.2297" height="33.944" filterUnits="userSpaceOnUse" color-interpolation-filters="sRGB">
<feFlood flood-opacity="0" result="BackgroundImageFix"/>
<feBlend mode="normal" in="SourceGraphic" in2="BackgroundImageFix" result="shape"/>
<feGaussianBlur stdDeviation="1" result="effect1_foregroundBlur"/>
</filter>
<filter id="filter7_dddiii" x="10" y="9" width="63" height="71" filterUnits="userSpaceOnUse" color-interpolation-filters="sRGB">
<feFlood flood-opacity="0" result="BackgroundImageFix"/>
<feColorMatrix in="SourceAlpha" type="matrix" values="0 0 0 0 0 0 0 0 0 0 0 0 0 0 0 0 0 0 127 0"/>
<feOffset dy="8"/>
<feGaussianBlur stdDeviation="4"/>
<feColorMatrix type="matrix" values="0 0 0 0 0 0 0 0 0 0 0 0 0 0 0 0 0 0 0.16 0"/>
<feBlend mode="normal" in2="BackgroundImageFix" result="effect1_dropShadow"/>
<feColorMatrix in="SourceAlpha" type="matrix" values="0 0 0 0 0 0 0 0 0 0 0 0 0 0 0 0 0 0 127 0"/>
<feOffset dy="16"/>
<feGaussianBlur stdDeviation="12"/>
<feColorMatrix type="matrix" values="0 0 0 0 0 0 0 0 0 0 0 0 0 0 0 0 0 0 0.2 0"/>
<feBlend mode="normal" in2="effect1_dropShadow" result="effect2_dropShadow"/>
<feColorMatrix in="SourceAlpha" type="matrix" values="0 0 0 0 0 0 0 0 0 0 0 0 0 0 0 0 0 0 127 0"/>
<feOffset dy="-8"/>
<feGaussianBlur stdDeviation="4"/>
<feColorMatrix type="matrix" values="0 0 0 0 1 0 0 0 0 0.760784 0 0 0 0 0.392157 0 0 0 0.2 0"/>
<feBlend mode="normal" in2="effect2_dropShadow" result="effect3_dropShadow"/>
<feBlend mode="normal" in="SourceGraphic" in2="effect3_dropShadow" result="shape"/>
<feColorMatrix in="SourceAlpha" type="matrix" values="0 0 0 0 0 0 0 0 0 0 0 0 0 0 0 0 0 0 127 0" result="hardAlpha"/>
<feOffset dy="-4"/>
<feGaussianBlur stdDeviation="4"/>
<feComposite in2="hardAlpha" operator="arithmetic" k2="-1" k3="1"/>
<feColorMatrix type="matrix" values="0 0 0 0 1 0 0 0 0 0.609986 0 0 0 0 0.0409505 0 0 0 1 0"/>
<feBlend mode="normal" in2="shape" result="effect4_innerShadow"/>
<feColorMatrix in="SourceAlpha" type="matrix" values="0 0 0 0 0 0 0 0 0 0 0 0 0 0 0 0 0 0 127 0" result="hardAlpha"/>
<feOffset dx="18" dy="28"/>
<feGaussianBlur stdDeviation="45"/>
<feComposite in2="hardAlpha" operator="arithmetic" k2="-1" k3="1"/>
<feColorMatrix type="matrix" values="0 0 0 0 1 0 0 0 0 1 0 0 0 0 1 0 0 0 0.2 0"/>
<feBlend mode="normal" in2="effect4_innerShadow" result="effect5_innerShadow"/>
<feColorMatrix in="SourceAlpha" type="matrix" values="0 0 0 0 0 0 0 0 0 0 0 0 0 0 0 0 0 0 127 0" result="hardAlpha"/>
<feOffset dx="3" dy="7"/>
<feGaussianBlur stdDeviation="10"/>
<feComposite in2="hardAlpha" operator="arithmetic" k2="-1" k3="1"/>
<feColorMatrix type="matrix" values="0 0 0 0 1 0 0 0 0 1 0 0 0 0 1 0 0 0 0.2 0"/>
<feBlend mode="normal" in2="effect5_innerShadow" result="effect6_innerShadow"/>
</filter>
<filter id="filter8_f" x="40" y="24" width="11" height="16" filterUnits="userSpaceOnUse" color-interpolation-filters="sRGB">
<feFlood flood-opacity="0" result="BackgroundImageFix"/>
<feBlend mode="normal" in="SourceGraphic" in2="BackgroundImageFix" result="shape"/>
<feGaussianBlur stdDeviation="1" result="effect1_foregroundBlur"/>
</filter>
<linearGradient id="paint0_linear" x1="42" y1="0" x2="42" y2="80" gradientUnits="userSpaceOnUse">
<stop stop-color="#FFDCA6"/>
<stop offset="1" stop-color="#FFB07B"/>
</linearGradient>
<radialGradient id="paint1_radial" cx="0" cy="0" r="1" gradientUnits="userSpaceOnUse" gradientTransform="translate(24.151 16.323) rotate(36.5447) scale(22.0964 18.8087)">
<stop stop-color="#DCEAFF"/>
<stop offset="0.0001" stop-color="#DCEAFF"/>
<stop offset="0.173328" stop-color="white"/>
<stop offset="0.363511" stop-color="#A4CCFF"/>
<stop offset="0.705778" stop-color="#3E93FF"/>
<stop offset="1" stop-color="#0070FF"/>
</radialGradient>
<linearGradient id="paint2_linear" x1="34.8253" y1="18.9377" x2="34.8253" y2="26.9971" gradientUnits="userSpaceOnUse">
<stop stop-color="#A4CCFF"/>
<stop offset="1" stop-color="#1E81FF"/>
</linearGradient>
<linearGradient id="paint3_linear" x1="34.8253" y1="18.9377" x2="34.8253" y2="26.9971" gradientUnits="userSpaceOnUse">
<stop stop-color="#A4CCFF"/>
<stop offset="1" stop-color="#1E81FF"/>
</linearGradient>
<linearGradient id="paint4_linear" x1="34.8253" y1="18.9377" x2="34.8253" y2="26.9971" gradientUnits="userSpaceOnUse">
<stop stop-color="#A4CCFF"/>
<stop offset="1" stop-color="#1E81FF"/>
</linearGradient>
<radialGradient id="paint5_radial" cx="0" cy="0" r="1" gradientUnits="userSpaceOnUse" gradientTransform="translate(39 20) rotate(37.1137) scale(21.7387 18.6124)">
<stop stop-color="white"/>
<stop offset="0.0001" stop-color="#ECECFF"/>
<stop offset="0.173328" stop-color="white"/>
<stop offset="0.259118" stop-color="#D2D2FF"/>
<stop offset="0.614155" stop-color="#ACACFC"/>
<stop offset="1" stop-color="#605DEF"/>
</radialGradient>
<linearGradient id="paint6_linear" x1="49.3647" y1="22.5879" x2="49.3647" y2="30.6471" gradientUnits="userSpaceOnUse">
<stop stop-color="#A09EEF"/>
<stop offset="1" stop-color="#4643A4"/>
</linearGradient>
<linearGradient id="paint7_linear" x1="49.3647" y1="22.5879" x2="49.3647" y2="30.6471" gradientUnits="userSpaceOnUse">
<stop stop-color="#A09EEF"/>
<stop offset="1" stop-color="#4643A4"/>
</linearGradient>
<linearGradient id="paint8_linear" x1="49.3647" y1="22.5879" x2="49.3647" y2="30.6471" gradientUnits="userSpaceOnUse">
<stop stop-color="#A09EEF"/>
<stop offset="1" stop-color="#4643A4"/>
</linearGradient>
<radialGradient id="paint9_radial" cx="0" cy="0" r="1" gradientUnits="userSpaceOnUse" gradientTransform="translate(36.794 35.9274) rotate(74.2397) scale(29.0731 13.9769)">
<stop stop-color="white"/>
<stop offset="0.0001" stop-color="#D2BEBE"/>
<stop offset="0.205391" stop-color="white"/>
<stop offset="0.348912" stop-color="#C4A7A7"/>
<stop offset="0.655983" stop-color="#6E4848"/>
<stop offset="0.930967" stop-color="#46282A"/>
</radialGradient>
<radialGradient id="paint10_radial" cx="0" cy="0" r="1" gradientUnits="userSpaceOnUse" gradientTransform="translate(34.6445 25.9375) rotate(50.2743) scale(18.2239 16.4747)">
<stop stop-color="white"/>
<stop offset="0.0001" stop-color="#FBEBB6"/>
<stop offset="0.120794" stop-color="white"/>
<stop offset="0.497048" stop-color="#FFE693"/>
<stop offset="0.87665" stop-color="#FEE07D"/>
<stop offset="1" stop-color="#FFC400"/>
</radialGradient>
</defs>
</svg>
